#!OML:ASF E:\emotionWalksFemale\Project 1\Capture day 1\Session 1\Female1.ASF
:FULLY-SPECIFIED
:DEGREES
991
root 1.80733 15.2428 -36.2142 162.445 67.4469 -201.912
lowerback 9.85054 -1.29846 -6.36995
upperback -2.78197 -2.49536 0.971545
thorax -8.20156 -0.861285 5.04262
lowerneck 0.591536 -10.4945 -16.2989
upperneck 17.2142 -16.0588 18.967
head 8.08351 -7.38435 7.7635
rclavicle 9.14409e-015 1.43125e-014
rhumerus -45.0421 2.83561 -70.8905
rradius 30.0303
rwrist 16.8002
rhand -8.45817 -56.9886
rfingers 7.12502
rthumb 17.4679 -446.224
lclavicle 9.14409e-015 1.43125e-014
lhumerus -17.486 1.5769 68.5749
lradius 37.3203
lwrist -13.6925
lhand -1.80727 -28.7268
lfingers 7.12502
lthumb 23.8582 -0.188596
rfemur -36.6321 -3.04207 22.3623
rtibia 36.7631
rfoot -15.1345 -31.1306
rtoes 21.9516
lfemur 12.429 -24.4358 -32.7321
ltibia 8.55966
lfoot -19.9127 29.3798
ltoes -11.0103
992
root 1.94738 15.2399 -36.2558 161.74 67.8003 -202.835
lowerback 9.76838 -1.2131 -6.52926
upperback -2.87486 -2.40547 0.882839
thorax -8.26571 -0.806361 5.02241
lowerneck 0.571865 -10.3841 -17.4346
upperneck 17.6736 -16.0622 19.8796
head 8.42863 -7.385 8.30944
rclavicle 5.81445e-015 9.54166e-015
rhumerus -45.179 1.14109 -69.6412
rradius 29.4763
rwrist 18.1663
rhand -8.29453 -56.631
rfingers 7.12502
rthumb 17.6254 -445.852
lclavicle 5.81445e-015 9.54166e-015
lhumerus -16.9894 0.511721 69.024
lradius 37.9381
lwrist -13.2151
lhand -3.81571 -29.3436
lfingers 7.12502
lthumb 21.9309 -0.566637
rfemur -36.4631 -1.74759 21.6567
rtibia 33.3664
rfoot -15.5355 -33.2268
rtoes 24.6141
lfemur 13.8794 -23.3749 -32.8865
ltibia 6.35745
lfoot -18.8672 28.6892
ltoes -10.286
993
root 2.09361 15.2393 -36.2944 160.926 68.0302 -203.818
lowerback 9.65743 -1.14233 -6.76193
upperback -2.93587 -2.34621 0.723105
thorax -8.27519 -0.767435 4.96991
lowerneck 0.504273 -10.4234 -17.4015
upperneck 17.9193 -16.1647 20.0532
head 8.55962 -7.40383 8.36217
rclavicle 1.32937e-014 2.3059e-014
rhumerus -45.7645 1.5942 -69.9241
rradius 29.8533
rwrist 17.0898
rhand -8.1792 -56.8275
rfingers 7.12502
rthumb 17.7364 -446.039
lclavicle 1.32937e-014 2.3059e-014
lhumerus -16.5528 -0.345397 69.3473
lradius 38.5281
lwrist -12.9679
lhand -5.8573 -30.0091
lfingers 7.12502
lthumb 19.9695 -1.01522
rfemur -36.1773 -0.259141 20.7024
rtibia 30.2798
rfoot -16.9039 -35.5012
rtoes 28.2165
lfemur 16.1009 -22.4307 -32.9896
ltibia 2.61845
lfoot -16.2681 28.4045
ltoes -11.863
994
root 2.24689 15.2296 -36.3327 160.336 68.2164 -204.493
lowerback 9.54028 -1.1846 -6.94679
upperback -2.99082 -2.42184 0.685396
thorax -8.25268 -0.794941 5.04196
lowerneck 0.450611 -10.3571 -17.1712
upperneck 18.0082 -16.0558 19.8898
head 8.53855 -7.34093 8.27776
rclavicle -5.03422e-014 -6.36111e-015
rhumerus -46.3478 2.8487 -70.585
rradius 30.5216
rwrist 15.3718
rhand -7.86602 -57.5308
rfingers 7.12502
rthumb 18.0378 -446.714
lclavicle -5.03422e-014 -6.36111e-015
lhumerus -16.4441 -1.10577 69.6424
lradius 39.2719
lwrist -12.5481
lhand -7.66711 -30.6765
lfingers 7.12502
lthumb 18.2291 -1.51073
rfemur -35.7295 2.326 19.3119
rtibia 27.538
rfoot -20.106 -38.247
rtoes 33.9444
lfemur 17.8824 -21.5518 -33.0167
ltibia -9.54166e-015
lfoot -14.4325 28.0109
ltoes -13.0128
995
root 2.40545 15.2282 -36.3691 160.029 68.4232 -204.885
lowerback 9.37309 -1.22174 -6.95525
upperback -3.05034 -2.4638 0.649092
thorax -8.21571 -0.815842 5.00837
lowerneck 0.334154 -10.2826 -17.0319
upperneck 18.1721 -15.9374 19.7459
head 8.56324 -7.27283 8.21715
rclavicle 3.27001e-014 -1.90833e-014
rhumerus -46.8487 3.23461 -70.7403
rradius 30.9423
rwrist 14.4451
rhand -7.32327 -57.7254
rfingers 7.12502
rthumb 18.5599 -446.86
lclavicle 3.27001e-014 -1.90833e-014
lhumerus -16.416 -2.12069 69.8898
lradius 40.0687
lwrist -12.0648
lhand -9.231 -31.6008
lfingers 7.12502
lthumb 16.7241 -2.30119
rfemur -35.3186 5.40796 17.7328
rtibia 25.1611
rfoot -24.4295 -40.9148
rtoes 39.7583
lfemur 18.3653 -20.6914 -32.9591
ltibia 3.18055e-015
lfoot -13.7734 27.5642
ltoes -15.3526
996
root 2.56759 15.2319 -36.4038 159.865 68.6146 -205.118
lowerback 9.21218 -1.26453 -6.95544
upperback -3.09047 -2.51038 0.63615
thorax -8.15992 -0.840222 4.99553
lowerneck 0.107053 -10.3165 -16.6934
upperneck 18.3587 -15.9504 19.4691
head 8.61486 -7.25463 8.04849
rclavicle 3.83654e-014 5.56597e-015
rhumerus -47.0729 2.43446 -70.1989
rradius 30.8566
rwrist 15.0499
rhand -6.31382 -57.5986
rfingers 7.12502
rthumb 19.5307 -446.638
lclavicle 3.83654e-014 5.56597e-015
lhumerus -16.4424 -3.03579 70.126
lradius 40.8369
lwrist -11.6534
lhand -10.9345 -32.5398
lfingers 7.12502
lthumb 15.0836 -3.10936
rfemur -35.0131 8.48256 16.1405
rtibia 23.1942
rfoot -27.6954 -43.7255
rtoes 42.6227
lfemur 18.8388 -19.8718 -32.8218
ltibia 7.63333e-014
lfoot -12.6823 27.2577
ltoes -19.0262
997
root 2.7321 15.2255 -36.4361 159.414 68.7848 -205.549
lowerback 9.14252 -1.31928 -7.12131
upperback -3.10684 -2.59757 0.658292
thorax -8.11885 -0.874798 5.12319
lowerneck -0.0515167 -10.3348 -16.3863
upperneck 18.4695 -15.9403 19.1896
head 8.62585 -7.23541 7.88842
rclavicle 1.2424e-016 -8.74653e-015
rhumerus -47.2988 2.14186 -69.9576
rradius 30.8724
rwrist 15.5734
rhand -4.91485 -58.2435
rfingers 7.12502
rthumb 20.8752 -447.14
lclavicle 1.2424e-016 -8.74653e-015
lhumerus -16.6258 -3.59158 70.4076
lradius 41.5704
lwrist -11.3482
lhand -12.6686 -33.3508
lfingers 7.12502
lthumb 13.4126 -3.80263
rfemur -34.7222 11.9737 14.2768
rtibia 21.6796
rfoot -31.5859 -46.1975
rtoes 45.1965
lfemur 19.4329 -19.0321 -32.7635
ltibia -3.18055e-014
lfoot -11.8395 26.6019
ltoes -20.4674
998
root 2.90025 15.2129 -36.4656 159.136 68.9467 -205.803
lowerback 8.95584 -1.40216 -7.13858
upperback -3.10575 -2.69357 0.682246
thorax -7.99387 -0.92595 5.16385
lowerneck -0.100216 -10.2656 -16.4326
upperneck 18.5279 -15.8447 19.1866
head 8.63828 -7.19069 7.90839
rclavicle 5.40446e-014 6.36111e-015
rhumerus -47.6666 2.59556 -70.2123
rradius 31.2408
rwrist 15.2476
rhand -3.76874 -58.9028
rfingers 7.12502
rthumb 21.976 -447.674
lclavicle 5.40446e-014 6.36111e-015
lhumerus -16.9194 -4.0805 70.7581
lradius 42.3081
lwrist -10.8705
lhand -14.147 -34.0699
lfingers 7.12502
lthumb 11.9873 -4.43321
rfemur -34.5466 16.1218 12.1827
rtibia 20.5482
rfoot -37.7523 -47.9816
rtoes 48.7657
lfemur 20.0398 -18.2348 -32.604
ltibia 1.27222e-014
lfoot -11.2756 25.6152
ltoes -19.1384
999
root 3.07208 15.2102 -36.4942 159.288 69.0478 -205.601
lowerback 8.68049 -1.53991 -6.82552
upperback -3.06446 -2.82134 0.617553
thorax -7.7856 -1.01678 4.92153
lowerneck -0.168133 -10.1894 -16.4394
upperneck 18.5978 -15.7642 19.323
head 8.67039 -7.13784 7.9724
rclavicle -4.33599e-014 -1.19271e-014
rhumerus -47.8973 2.35148 -70.2253
rradius 31.6922
rwrist 16.3001
rhand -1.4606 -59.3041
rfingers 7.12502
rthumb 24.1907 -447.799
lclavicle -4.33599e-014 -1.19271e-014
lhumerus -17.2102 -4.55113 70.9733
lradius 43.0293
lwrist -10.4429
lhand -15.3423 -34.8631
lfingers 7.12502
lthumb 10.8346 -5.16254
rfemur -34.2188 18.2835 11.1894
rtibia 19.695
rfoot -39.3763 -49.4622
rtoes 49.1869
lfemur 20.6304 -17.5566 -32.3009
ltibia 6.04305e-014
lfoot -10.2085 24.79
ltoes -19.4349
